<?xml version="1.0" encoding="UTF-8" standalone="no"?>
<!-- Created with Inkscape (http://www.inkscape.org/) -->

<svg
   xmlns:dc="http://purl.org/dc/elements/1.1/"
   xmlns:cc="http://creativecommons.org/ns#"
   xmlns:rdf="http://www.w3.org/1999/02/22-rdf-syntax-ns#"
   xmlns:svg="http://www.w3.org/2000/svg"
   xmlns="http://www.w3.org/2000/svg"
   xmlns:sodipodi="http://sodipodi.sourceforge.net/DTD/sodipodi-0.dtd"
   xmlns:inkscape="http://www.inkscape.org/namespaces/inkscape"
   width="103.76546mm"
   height="137.02739mm"
   viewBox="0 0 103.76546 137.02739"
   version="1.1"
   id="svg8"
   sodipodi:docname="part2.svg"
   inkscape:version="0.92.4 (5da689c313, 2019-01-14)">
  <defs
     id="defs2" />
  <sodipodi:namedview
     id="base"
     pagecolor="#ffffff"
     bordercolor="#666666"
     borderopacity="1.0"
     inkscape:pageopacity="0.0"
     inkscape:pageshadow="2"
     inkscape:zoom="0.7"
     inkscape:cx="357.26283"
     inkscape:cy="230.35751"
     inkscape:document-units="mm"
     inkscape:current-layer="layer3"
     showgrid="false"
     fit-margin-top="0"
     fit-margin-left="0"
     fit-margin-right="0"
     fit-margin-bottom="0"
     inkscape:window-width="1920"
     inkscape:window-height="1018"
     inkscape:window-x="-8"
     inkscape:window-y="-8"
     inkscape:window-maximized="1" />
  <metadata
     id="metadata5">
    <rdf:RDF>
      <cc:Work
         rdf:about="">
        <dc:format>image/svg+xml</dc:format>
        <dc:type
           rdf:resource="http://purl.org/dc/dcmitype/StillImage" />
        <dc:title />
      </cc:Work>
    </rdf:RDF>
  </metadata>
  <g
     inkscape:label="Layer 1"
     inkscape:groupmode="layer"
     id="layer1"
     transform="translate(-77.654379,-134.65859)"
     style="display:inline">
    <g
       aria-label="55"
       style="display:inline;font-style:normal;font-variant:normal;font-weight:normal;font-stretch:normal;font-size:14.11111069px;line-height:1.25;font-family:Arial;-inkscape-font-specification:'Arial, Normal';font-variant-ligatures:normal;font-variant-caps:normal;font-variant-numeric:normal;text-align:start;letter-spacing:0px;word-spacing:0px;writing-mode:lr-tb;text-anchor:start;fill:none;fill-opacity:1;stroke:#ff0000;stroke-width:0.26499999;stroke-miterlimit:4;stroke-dasharray:none;stroke-opacity:1"
       id="text1160"
       transform="matrix(3.0471724,0,0,2.7540101,-309.14082,-228.52244)">
      <path
         d="m 136.54837,165.37466 1.30225,-0.11024 q 0.14469,0.95084 0.66835,1.43316 0.53054,0.47542 1.27468,0.47542 0.89573,0 1.51585,-0.67524 0.62011,-0.67524 0.62011,-1.79145 0,-1.06109 -0.59944,-1.67432 -0.59256,-0.61322 -1.55719,-0.61322 -0.59944,0 -1.08176,0.27561 -0.48231,0.26871 -0.75792,0.70279 l -1.16444,-0.15158 0.97841,-5.18831 h 5.02295 v 1.18511 h -4.03077 l -0.54432,2.71473 q 0.9095,-0.63389 1.90858,-0.63389 1.32292,0 2.23242,0.91639 0.90951,0.9164 0.90951,2.35645 0,1.37115 -0.79926,2.37022 -0.97152,1.22646 -2.65273,1.22646 -1.37803,0 -2.25309,-0.7717 -0.86816,-0.77171 -0.99219,-2.04639 z"
         style="fill:none;stroke:#ff0000;stroke-width:0.26499999;stroke-miterlimit:4;stroke-dasharray:none;stroke-opacity:1"
         id="path1167"
         inkscape:connector-curvature="0" />
      <path
         d="m 144.40319,165.37466 1.30225,-0.11024 q 0.14469,0.95084 0.66835,1.43316 0.53054,0.47542 1.27468,0.47542 0.89573,0 1.51584,-0.67524 0.62012,-0.67524 0.62012,-1.79145 0,-1.06109 -0.59945,-1.67432 -0.59255,-0.61322 -1.55718,-0.61322 -0.59945,0 -1.08176,0.27561 -0.48231,0.26871 -0.75792,0.70279 l -1.16444,-0.15158 0.9784,-5.18831 h 5.02295 v 1.18511 h -4.03076 l -0.54432,2.71473 q 0.9095,-0.63389 1.90858,-0.63389 1.32292,0 2.23242,0.91639 0.90951,0.9164 0.90951,2.35645 0,1.37115 -0.79927,2.37022 -0.97151,1.22646 -2.65272,1.22646 -1.37804,0 -2.25309,-0.7717 -0.86817,-0.77171 -0.99219,-2.04639 z"
         style="fill:none;stroke:#ff0000;stroke-width:0.26499999;stroke-miterlimit:4;stroke-dasharray:none;stroke-opacity:1"
         id="path1169"
         inkscape:connector-curvature="0" />
    </g>
  </g>
  <g
     inkscape:groupmode="layer"
     id="layer2"
     inkscape:label="Layer 2">
    <path
       transform="translate(-77.65438,-134.65859)"
       inkscape:connector-curvature="0"
       id="path1135"
       style="display:inline;font-style:normal;font-variant:normal;font-weight:normal;font-stretch:normal;font-size:174.86091614px;line-height:1.25;font-family:Arial;-inkscape-font-specification:'Arial, Normal';font-variant-ligatures:normal;font-variant-caps:normal;font-variant-numeric:normal;text-align:start;letter-spacing:0px;word-spacing:0px;writing-mode:lr-tb;text-anchor:start;fill:none;fill-opacity:1;stroke:#000000;stroke-width:0.2;stroke-miterlimit:4;stroke-dasharray:none;stroke-opacity:1"
       d="m 89.032092,230.30101 16.137068,-1.3661 q 1.79301,11.78262 8.28199,17.75931 6.57436,5.89131 15.79554,5.89131 11.09957,0 18.78389,-8.36737 7.68431,-8.36736 7.68431,-22.19914 0,-13.14872 -7.42817,-20.74765 -7.34279,-7.59894 -19.29618,-7.59894 -7.42817,0 -13.40486,3.41525 -5.97669,3.32987 -9.39195,8.7089 l -14.429436,-1.87839 12.124146,-64.29213 h 62.24297 v 14.68559 h -49.94806 l -6.74513,33.64023 q 11.27034,-7.85508 23.65063,-7.85508 16.39321,0 27.66354,11.35572 11.27033,11.35571 11.27033,29.2004 0,16.99088 -9.90423,29.37117 -12.03876,15.19788 -32.8718,15.19788 -17.07626,0 -27.91969,-9.56271 -10.758044,-9.56271 -12.294908,-25.35825 z" />
  </g>
  <g
     inkscape:groupmode="layer"
     id="layer3"
     inkscape:label="Layer 3">
    <rect
       transform="translate(-77.65438,-134.65859)"
       style="display:inline;opacity:1;fill:none;fill-opacity:1;fill-rule:nonzero;stroke:#000000;stroke-width:0.2;stroke-miterlimit:4;stroke-dasharray:none;stroke-opacity:1"
       id="rect1156"
       width="103.56547"
       height="136.82739"
       x="77.754379"
       y="134.75859" />
  </g>
</svg>
